#!OML:ASF H:\Terrain\Walking\May29\JustinRory\Justin.ASF
:FULLY-SPECIFIED
:DEGREES
272
root 11.9027 17.9424 12.24 -179.803 -98.4658 -177.312
lowerback 1.6595 -2.18131 -4.38244
upperback 0.227378 -2.9802 1.47177
thorax -0.394058 -1.4876 4.0227
lowerneck -12.9654 -7.65357 -14.551
upperneck 20.9143 -7.73609 0.208972
head 9.39109 -4.838 1.45462
rclavicle 1.92821e-014 7.7526e-015
rhumerus -37.5468 -34.3316 -69.9733
rradius 20.2242
rwrist -4.84186
rhand -21.599 27.2013
rfingers 7.12502
rthumb 4.79595 -2.72439
lclavicle 1.92821e-014 7.7526e-015
lhumerus -33.006 13.047 74.787
lradius 37.6011
lwrist -2.79941
lhand -6.32628 39.9883
lfingers 7.12502
lthumb 19.5187 69.0286
rfemur -25.6555 0.524365 12.8294
rtibia 34.9359
rfoot -9.88568 -11.2351
rtoes 13.8791
lfemur -2.12744 -1.17886 -23.9216
ltibia 21.379
lfoot -17.8934 -3.55043
ltoes 14.5088
273
root 11.8853 17.9543 12.3002 -177.646 -99.5495 -179.513
lowerback 1.67915 -2.20639 -4.00414
upperback 0.237757 -3.00775 1.47437
thorax -0.410988 -1.50163 3.81371
lowerneck -12.6493 -7.33573 -13.4775
upperneck 20.3077 -7.33276 -0.937093
head 8.99786 -4.66571 0.9779
rclavicle 3.46134e-014 -1.19271e-015
rhumerus -37.0495 -32.7 -70.6834
rradius 20.7924
rwrist -6.03138
rhand -21.5565 27.0496
rfingers 7.12502
rthumb 4.837 -2.87521
lclavicle 3.46134e-014 -1.19271e-015
lhumerus -32.9482 13.9833 73.9407
lradius 36.3289
lwrist -3.24958
lhand -6.36459 40.1268
lfingers 7.12502
lthumb 19.4818 69.1708
rfemur -25.6377 1.58272 13.0684
rtibia 35.4087
rfoot -12.7635 -10.5718
rtoes 28.8226
lfemur -1.85054 -1.87213 -23.7343
ltibia 20.9477
lfoot -17.6514 -3.85452
ltoes 15.0721
274
root 11.8606 18.0005 12.3559 -177.826 -100.496 -179.54
lowerback 1.91128 -2.19782 -4.10203
upperback 0.249063 -3.00728 1.42739
thorax -0.526947 -1.49862 3.83042
lowerneck -12.9736 -6.90926 -13.9397
upperneck 20.8352 -6.76139 -0.0778232
head 9.25021 -4.36583 1.39981
rclavicle 3.5744e-014 9.93923e-016
rhumerus -36.715 -31.2289 -71.0811
rradius 21.3813
rwrist -6.70154
rhand -21.484 26.7254
rfingers 7.12502
rthumb 4.90698 -3.19782
lclavicle 3.5744e-014 9.93923e-016
lhumerus -33.0267 14.4572 73.1848
lradius 35.3165
lwrist -3.31973
lhand -6.96035 41.0918
lfingers 7.12502
lthumb 18.909 70.1927
rfemur -25.3242 3.26656 12.6569
rtibia 36.0868
rfoot -15.9012 -9.11599
rtoes 40.8909
lfemur -1.15891 -2.25611 -23.8715
ltibia 20.1058
lfoot -17.2288 -4.29606
ltoes 15.2051
275
root 11.8445 17.9911 12.4171 -178.524 -101.64 -179.263
lowerback 2.50623 -2.26317 -4.16979
upperback 0.310577 -3.12007 1.37156
thorax -0.785556 -1.54989 3.8387
lowerneck -13.4014 -6.47731 -13.8064
upperneck 21.313 -6.11884 -0.0529871
head 9.44431 -4.07421 1.45602
rclavicle 1.57413e-014 1.98785e-015
rhumerus -36.7218 -30.2915 -71.1062
rradius 22.2334
rwrist -6.77391
rhand -21.2604 26.4458
rfingers 7.12502
rthumb 5.12296 -3.47228
lclavicle 1.57413e-014 1.98785e-015
lhumerus -33.0777 14.9406 72.5004
lradius 34.3105
lwrist -3.34968
lhand -7.57251 42.2812
lfingers 7.12502
lthumb 18.3201 71.4385
rfemur -25.4147 3.07612 13.1099
rtibia 36.5991
rfoot -16.0083 -9.36992
rtoes 38.812
lfemur -0.202079 -3.05411 -24.175
ltibia 19.1546
lfoot -16.7372 -4.38613
ltoes 14.7673
276
root 11.8279 18.0036 12.4759 -179.846 -102.618 -178.08
lowerback 2.80146 -2.15325 -4.37382
upperback 0.383711 -2.99238 1.21644
thorax -0.885888 -1.48424 3.80184
lowerneck -13.9348 -6.23262 -13.4708
upperneck 21.823 -5.70224 -0.299246
head 9.67352 -3.9008 1.35411
rclavicle -2.01891e-015 1.0138e-014
rhumerus -36.6987 -29.6244 -71.0741
rradius 23.0102
rwrist -7.17885
rhand -21.0847 26.3567
rfingers 7.12502
rthumb 5.29252 -3.55724
lclavicle -2.01891e-015 1.0138e-014
lhumerus -32.775 15.5221 71.8843
lradius 33.089
lwrist -3.90895
lhand -7.08452 42.5543
lfingers 7.12502
lthumb 18.7895 71.6668
rfemur -25.3371 3.90217 12.9226
rtibia 36.4053
rfoot -17.0694 -9.1962
rtoes 41.1137
lfemur 0.100941 -3.75076 -24.6614
ltibia 19.058
lfoot -16.5997 -4.61511
ltoes 15.9064
277
root 11.8124 18.0035 12.5294 -180.776 -103.46 -177.009
lowerback 2.82524 -1.94217 -4.56549
upperback 0.370688 -2.71926 1.06318
thorax -0.937843 -1.34522 3.74562
lowerneck -14.0988 -5.98324 -13.4282
upperneck 22.0411 -5.34083 -0.248194
head 9.75558 -3.73282 1.4089
rclavicle 9.54788e-015 2.88238e-015
rhumerus -36.3711 -28.3599 -71.276
rradius 23.3957
rwrist -8.35078
rhand -21.0806 26.4079
rfingers 7.12502
rthumb 5.29655 -3.50595
lclavicle 9.54788e-015 2.88238e-015
lhumerus -32.435 16.4999 71.2064
lradius 31.8525
lwrist -4.98471
lhand -7.02752 42.5029
lfingers 7.12502
lthumb 18.8443 71.6101
rfemur -25.4601 3.87731 13.1809
rtibia 35.4252
rfoot -16.1122 -9.53388
rtoes 40.4545
lfemur -0.388543 -4.1142 -25.0614
ltibia 19.9851
lfoot -16.7332 -5.23808
ltoes 18.8053
278
root 11.7927 17.9202 12.5814 -179.979 -103.976 -177.776
lowerback 2.8809 -1.75385 -4.37675
upperback 0.317221 -2.46571 1.04133
thorax -1.0579 -1.21485 3.61358
lowerneck -14.0545 -5.65153 -13.6301
upperneck 22.1694 -4.90157 0.047879
head 9.77493 -3.5202 1.60559
rclavicle 1.7872e-014 8.99501e-015
rhumerus -36.0941 -26.6311 -71.5822
rradius 23.7975
rwrist -9.58999
rhand -20.9926 26.4093
rfingers 7.12502
rthumb 5.38153 -3.50236
lclavicle 1.7872e-014 8.99501e-015
lhumerus -32.4626 17.392 70.4466
lradius 30.8869
lwrist -5.54843
lhand -7.75876 42.6123
lfingers 7.12502
lthumb 18.141 71.7864
rfemur -26.6106 1.33871 15.515
rtibia 33.901
rfoot -9.18893 -11.9857
rtoes 11.803
lfemur -0.862743 -4.25595 -25.058
ltibia 21.0784
lfoot -17.0916 -5.60031
ltoes 20.4731
279
root 11.7717 17.8838 12.633 -177.67 -104.611 -179.985
lowerback 2.75838 -1.71874 -3.88835
upperback 0.345456 -2.39749 1.12854
thorax -0.982933 -1.18491 3.42201
lowerneck -14.5288 -5.31931 -13.5115
upperneck 22.5004 -4.38513 0.0857889
head 9.94015 -3.28043 1.65896
rclavicle 1.02716e-014 8.19987e-015
rhumerus -35.5034 -24.8019 -72.1634
rradius 24.2243
rwrist -10.7847
rhand -20.9764 26.3282
rfingers 7.12502
rthumb 5.3971 -3.58304
lclavicle 1.02716e-014 8.19987e-015
lhumerus -32.362 18.1625 69.6481
lradius 29.9455
lwrist -5.82755
lhand -7.73909 42.8125
lfingers 7.12502
lthumb 18.1599 71.9848
rfemur -27.1605 0.797129 17.2845
rtibia 32.3452
rfoot -4.9709 -12.4521
rtoes -11.6986
lfemur -1.43649 -4.29961 -24.5742
ltibia 22.0503
lfoot -17.5787 -6.08034
ltoes 20.2955
280
root 11.7459 17.8878 12.6851 -176.06 -105.484 -181.596
lowerback 2.65845 -1.68217 -3.62636
upperback 0.560694 -2.33523 1.26074
thorax -0.716116 -1.16467 3.40105
lowerneck -15.3784 -5.05917 -12.9646
upperneck 22.8175 -3.88954 -0.379847
head 10.1541 -3.06874 1.45707
rclavicle 1.86795e-014 -4.72114e-016
rhumerus -34.6744 -23.2293 -72.6897
rradius 24.592
rwrist -11.9546
rhand -21.1638 26.2756
rfingers 7.12502
rthumb 5.21618 -3.64021
lclavicle 1.86795e-014 -4.72114e-016
lhumerus -31.8746 18.5847 69.2154
lradius 29.0468
lwrist -5.85863
lhand -7.89165 43.2743
lfingers 7.12502
lthumb 18.0131 72.4601
rfemur -27.0452 1.29911 18.1614
rtibia 30.7822
rfoot -3.99636 -12.0978
rtoes -12.043
lfemur -1.77444 -4.38107 -24.1451
ltibia 22.8042
lfoot -18.0338 -6.83301
ltoes 20.5319
281
root 11.7175 17.91 12.7386 -176.012 -106.456 -181.643
lowerback 2.71203 -1.59811 -3.67814
upperback 0.681227 -2.22641 1.17039
thorax -0.633177 -1.11407 3.33353
lowerneck -15.8236 -4.83891 -12.365
upperneck 23.0207 -3.60478 -0.572821
head 10.2699 -2.91393 1.32458
rclavicle -1.68058e-014 1.09301e-014
rhumerus -34.41 -22.161 -72.9146
rradius 25.0933
rwrist -12.9423
rhand -21.2588 26.0871
rfingers 7.12502
rthumb 5.1245 -3.83093
lclavicle -1.68058e-014 1.09301e-014
lhumerus -31.4849 18.4674 68.7773
lradius 28.282
lwrist -5.7519
lhand -8.33973 43.6612
lfingers 7.12502
lthumb 17.5819 72.8862
rfemur -26.9283 2.15736 18.2615
rtibia 29.8591
rfoot -5.0639 -11.8872
rtoes -2.89336
lfemur -1.72035 -4.6105 -24.1468
ltibia 22.8796
lfoot -18.4244 -7.4911
ltoes 20.8543
282
root 11.6862 17.9215 12.801 -175.725 -107.466 -182.005
lowerback 2.80315 -1.55207 -3.38513
upperback 0.752087 -2.16095 0.979527
thorax -0.635432 -1.08233 2.97218
lowerneck -15.799 -4.61723 -11.8419
upperneck 22.9466 -3.41158 -0.642136
head 10.2074 -2.78195 1.24668
rclavicle 4.37885e-014 9.54166e-015
rhumerus -34.4408 -21.5861 -72.8504
rradius 25.4978
rwrist -13.7476
rhand -21.3177 25.4788
rfingers 7.12502
rthumb 5.0676 -4.44057
lclavicle 4.37885e-014 9.54166e-015
lhumerus -31.3015 18.9491 67.9078
lradius 27.4697
lwrist -6.53681
lhand -8.28513 43.683
lfingers 7.12502
lthumb 17.6345 72.9033
rfemur -26.9375 2.7384 18.561
rtibia 29.3407
rfoot -5.72743 -11.5707
rtoes 4.63142
lfemur -1.37048 -5.12966 -24.1361
ltibia 22.5612
lfoot -18.5895 -7.7408
ltoes 20.4453
283
root 11.6569 17.9048 12.8694 -175.706 -108.537 -182.193
lowerback 2.92073 -1.59006 -3.17484
upperback 0.905246 -2.20926 0.954321
thorax -0.54938 -1.11082 2.83036
lowerneck -15.8849 -4.40837 -11.5592
upperneck 22.8323 -3.08488 -1.01719
head 10.1515 -2.64554 1.11373
rclavicle -3.4104e-014 6.95746e-016
rhumerus -34.1187 -20.9254 -72.5466
rradius 25.7152
rwrist -14.3592
rhand -21.3801 24.9117
rfingers 7.12502
rthumb 5.00738 -5.00914
lclavicle -3.4104e-014 6.95746e-016
lhumerus -31.2734 20.1343 67.1381
lradius 26.7815
lwrist -7.70192
lhand -7.72458 43.4186
lfingers 7.12502
lthumb 18.1738 72.5896
rfemur -26.9532 2.56259 19.0494
rtibia 28.8868
rfoot -5.57494 -10.7648
rtoes 10.7511
lfemur -0.899924 -5.72055 -24.2242
ltibia 22.2537
lfoot -18.1108 -8.13204
ltoes 21.5799
284
root 11.6317 17.889 12.9262 -177.011 -109.669 -180.867
lowerback 3.12532 -1.67031 -3.60788
upperback 0.935395 -2.33703 0.81934
thorax -0.611655 -1.17406 2.94449
lowerneck -16.1144 -4.14082 -11.1604
upperneck 23.0001 -2.67902 -1.41475
head 10.2199 -2.47947 0.960283
rclavicle -4.47887e-015 9.64106e-015
rhumerus -34.013 -20.0912 -72.3934
rradius 26.3881
rwrist -14.1486
rhand -21.2618 24.8256
rfingers 7.12502
rthumb 5.12159 -5.09249
lclavicle -4.47887e-015 9.64106e-015
lhumerus -31.4248 20.5811 66.5501
lradius 26.3428
lwrist -7.95872
lhand -7.11644 43.002
lfingers 7.12502
lthumb 18.7588 72.1175
rfemur -27.0067 2.15327 19.0689
rtibia 28.3127
rfoot -5.67754 -10.0084
rtoes 14.7625
lfemur -0.70809 -5.81586 -24.7025
ltibia 22.1511
lfoot -17.5329 -9.24984
ltoes 23.5647
285
root 11.6016 17.8808 12.9785 -177.847 -110.72 -179.868
lowerback 3.21435 -1.72978 -3.98994
upperback 0.883282 -2.43378 0.651673
thorax -0.698684 -1.21936 2.99337
lowerneck -16.2109 -3.84818 -10.9065
upperneck 23.1749 -2.30619 -1.45598
head 10.2751 -2.29891 0.954846
rclavicle 9.03228e-015 -6.75868e-015
rhumerus -34.1969 -19.6996 -72.2117
rradius 27.1431
rwrist -13.3011
rhand -21.3515 23.9398
rfingers 7.12502
rthumb 5.03494 -5.98042
lclavicle 9.03228e-015 -6.75868e-015
lhumerus -31.6525 20.7665 65.9103
lradius 26.0035
lwrist -8.11339
lhand -7.20972 42.6542
lfingers 7.12502
lthumb 18.6691 71.7783
rfemur -27.2422 1.89662 19.2273
rtibia 27.6042
rfoot -5.69462 -9.66104
rtoes 12.1689
lfemur -0.741725 -5.84283 -25.0744
ltibia 22.185
lfoot -17.4851 -10.2077
ltoes 22.7744
